<svg xmlns="http://www.w3.org/2000/svg" viewBox="0 0 900 430" role="img" aria-label="CFD workflow pipeline">
  <defs>
    <linearGradient id="g" x1="0" x2="1"><stop stop-color="#5eead4"/><stop offset="1" stop-color="#60a5fa"/></linearGradient>
    <filter id="s" x="-20%" y="-20%" width="140%" height="140%"><feDropShadow dx="0" dy="18" stdDeviation="16" flood-color="#000" flood-opacity=".35"/></filter>
  </defs>
  <rect width="900" height="430" rx="35" fill="#081425"/>
  <g opacity=".18" stroke="#5eead4" fill="none"><path d="M0 310 C130 210 250 420 390 260 S650 40 900 170"/><path d="M0 220 C180 90 310 310 490 190 S690 30 900 110"/></g>
  <g filter="url(#s)" font-family="Tahoma, Arial" font-size="24" font-weight="700">
    <rect x="55" y="125" width="190" height="100" rx="24" fill="#102a4d" stroke="#ffffff22"/>
    <text x="150" y="165" fill="#fff" text-anchor="middle">Pre-processing</text><text x="150" y="198" fill="#9fb7d3" text-anchor="middle" font-size="18">Geometry + Mesh</text>
    <rect x="355" y="125" width="190" height="100" rx="24" fill="#102a4d" stroke="#ffffff22"/>
    <text x="450" y="165" fill="#fff" text-anchor="middle">Solver</text><text x="450" y="198" fill="#9fb7d3" text-anchor="middle" font-size="18">Discretization</text>
    <rect x="655" y="125" width="190" height="100" rx="24" fill="#102a4d" stroke="#ffffff22"/>
    <text x="750" y="165" fill="#fff" text-anchor="middle">Post-processing</text><text x="750" y="198" fill="#9fb7d3" text-anchor="middle" font-size="18">Fields + Reports</text>
    <path d="M255 175 H335" stroke="url(#g)" stroke-width="9" stroke-linecap="round"/><path d="M555 175 H635" stroke="url(#g)" stroke-width="9" stroke-linecap="round"/>
    <circle cx="150" cy="310" r="34" fill="url(#g)"/><text x="150" y="318" fill="#07111f" text-anchor="middle">1</text>
    <circle cx="450" cy="310" r="34" fill="url(#g)"/><text x="450" y="318" fill="#07111f" text-anchor="middle">2</text>
    <circle cx="750" cy="310" r="34" fill="url(#g)"/><text x="750" y="318" fill="#07111f" text-anchor="middle">3</text>
  </g>
</svg>
